<mxfile host="app.diagrams.net" agent="Mozilla/5.0 (Macintosh; Intel Mac OS X 10_15_7) AppleWebKit/537.36 (KHTML, like Gecko) Chrome/129.0.0.0 Safari/537.36" version="24.7.16">
  <diagram name="Page-1" id="v5Or89mQVnWyn1-axlLu">
    <mxGraphModel dx="1900" dy="621" grid="1" gridSize="10" guides="1" tooltips="1" connect="1" arrows="1" fold="1" page="1" pageScale="1" pageWidth="850" pageHeight="1100" math="0" shadow="0">
      <root>
        <mxCell id="0" />
        <mxCell id="1" parent="0" />
        <mxCell id="2L_FqhzigyQAS_WPldLk-1" value="&lt;div&gt;&lt;span style=&quot;background-color: initial;&quot;&gt;- QC of fastq files&amp;nbsp;&lt;/span&gt;&lt;/div&gt;&lt;div&gt;&lt;span style=&quot;background-color: initial;&quot;&gt;indexing and alignment&lt;/span&gt;&lt;br&gt;&lt;/div&gt;&lt;div&gt;- generation of read counts&lt;/div&gt;" style="rounded=0;whiteSpace=wrap;html=1;" vertex="1" parent="1">
          <mxGeometry x="100" y="140" width="170" height="80" as="geometry" />
        </mxCell>
        <mxCell id="2L_FqhzigyQAS_WPldLk-2" value="Workflow Step (Nextflow)" style="rounded=0;whiteSpace=wrap;html=1;" vertex="1" parent="1">
          <mxGeometry x="100" y="240" width="170" height="80" as="geometry" />
        </mxCell>
        <mxCell id="2L_FqhzigyQAS_WPldLk-3" value="- batch correction&lt;div&gt;- normalization and filtering&lt;br&gt;&lt;div&gt;- differential gene expression&lt;/div&gt;&lt;/div&gt;&lt;div&gt;- clustering / ML&lt;/div&gt;" style="rounded=0;whiteSpace=wrap;html=1;" vertex="1" parent="1">
          <mxGeometry x="290" y="140" width="180" height="80" as="geometry" />
        </mxCell>
        <mxCell id="2L_FqhzigyQAS_WPldLk-4" value="R / Python / Java" style="rounded=0;whiteSpace=wrap;html=1;" vertex="1" parent="1">
          <mxGeometry x="290" y="240" width="180" height="80" as="geometry" />
        </mxCell>
        <mxCell id="2L_FqhzigyQAS_WPldLk-5" value="&lt;span style=&quot;color: rgb(0, 0, 0); font-family: Helvetica; font-style: normal; font-variant-ligatures: normal; font-variant-caps: normal; font-weight: 400; letter-spacing: normal; orphans: 2; text-align: center; text-indent: 0px; text-transform: none; widows: 2; word-spacing: 0px; -webkit-text-stroke-width: 0px; white-space: normal; background-color: rgb(251, 251, 251); text-decoration-thickness: initial; text-decoration-style: initial; text-decoration-color: initial; float: none; display: inline !important;&quot;&gt;&lt;font style=&quot;font-size: 18px;&quot;&gt;Preprocessing&lt;/font&gt;&lt;/span&gt;" style="text;whiteSpace=wrap;html=1;" vertex="1" parent="1">
          <mxGeometry x="130" y="90" width="110" height="40" as="geometry" />
        </mxCell>
        <mxCell id="2L_FqhzigyQAS_WPldLk-6" value="&lt;div style=&quot;text-align: center;&quot;&gt;&lt;span style=&quot;background-color: initial; font-size: 18px;&quot;&gt;Secondary Analysis&lt;/span&gt;&lt;/div&gt;" style="text;whiteSpace=wrap;html=1;" vertex="1" parent="1">
          <mxGeometry x="325" y="70" width="110" height="40" as="geometry" />
        </mxCell>
        <mxCell id="2L_FqhzigyQAS_WPldLk-7" value="&lt;div style=&quot;text-align: center;&quot;&gt;&lt;br&gt;&lt;/div&gt;" style="text;whiteSpace=wrap;html=1;" vertex="1" parent="1">
          <mxGeometry x="540" y="70" width="110" height="40" as="geometry" />
        </mxCell>
        <mxCell id="2L_FqhzigyQAS_WPldLk-8" value="&lt;div style=&quot;text-align: center;&quot;&gt;&lt;span style=&quot;font-size: 18px;&quot;&gt;Front End App&lt;/span&gt;&lt;/div&gt;&lt;div style=&quot;text-align: center;&quot;&gt;&lt;span style=&quot;font-size: 18px;&quot;&gt;&lt;br&gt;&lt;/span&gt;&lt;/div&gt;" style="text;whiteSpace=wrap;html=1;" vertex="1" parent="1">
          <mxGeometry x="-70" y="70" width="110" height="40" as="geometry" />
        </mxCell>
        <mxCell id="2L_FqhzigyQAS_WPldLk-9" value="- Serve UI to users&lt;div&gt;- Manage runs, data, etc&lt;/div&gt;" style="rounded=0;whiteSpace=wrap;html=1;" vertex="1" parent="1">
          <mxGeometry x="-90" y="140" width="170" height="80" as="geometry" />
        </mxCell>
        <mxCell id="2L_FqhzigyQAS_WPldLk-10" value="R: ShinyApp&lt;div&gt;Python: Flask&lt;/div&gt;" style="rounded=0;whiteSpace=wrap;html=1;" vertex="1" parent="1">
          <mxGeometry x="-90" y="240" width="170" height="80" as="geometry" />
        </mxCell>
        <mxCell id="2L_FqhzigyQAS_WPldLk-11" value="&lt;div style=&quot;text-align: center;&quot;&gt;&lt;span style=&quot;background-color: initial; font-size: 18px;&quot;&gt;Database&lt;/span&gt;&lt;/div&gt;" style="text;whiteSpace=wrap;html=1;" vertex="1" parent="1">
          <mxGeometry x="540" y="80" width="110" height="40" as="geometry" />
        </mxCell>
        <mxCell id="2L_FqhzigyQAS_WPldLk-12" value="Keep track of run metadata, file metadata, etc." style="rounded=0;whiteSpace=wrap;html=1;" vertex="1" parent="1">
          <mxGeometry x="490" y="140" width="180" height="80" as="geometry" />
        </mxCell>
        <mxCell id="2L_FqhzigyQAS_WPldLk-13" value="mysql, postgresql, sqlite" style="rounded=0;whiteSpace=wrap;html=1;" vertex="1" parent="1">
          <mxGeometry x="490" y="240" width="180" height="80" as="geometry" />
        </mxCell>
        <mxCell id="2L_FqhzigyQAS_WPldLk-14" value="1" style="text;html=1;align=center;verticalAlign=middle;resizable=0;points=[];autosize=1;strokeColor=none;fillColor=none;fontSize=18;" vertex="1" parent="1">
          <mxGeometry x="170" y="335" width="30" height="40" as="geometry" />
        </mxCell>
        <mxCell id="2L_FqhzigyQAS_WPldLk-15" value="&lt;font style=&quot;font-size: 18px;&quot;&gt;2&lt;/font&gt;" style="text;html=1;align=center;verticalAlign=middle;resizable=0;points=[];autosize=1;strokeColor=none;fillColor=none;" vertex="1" parent="1">
          <mxGeometry x="-20" y="335" width="30" height="40" as="geometry" />
        </mxCell>
        <mxCell id="2L_FqhzigyQAS_WPldLk-16" value="3" style="text;html=1;align=center;verticalAlign=middle;resizable=0;points=[];autosize=1;strokeColor=none;fillColor=none;fontSize=18;" vertex="1" parent="1">
          <mxGeometry x="360" y="335" width="30" height="40" as="geometry" />
        </mxCell>
        <mxCell id="2L_FqhzigyQAS_WPldLk-17" value="4" style="text;html=1;align=center;verticalAlign=middle;resizable=0;points=[];autosize=1;strokeColor=none;fillColor=none;fontSize=18;" vertex="1" parent="1">
          <mxGeometry x="565" y="335" width="30" height="40" as="geometry" />
        </mxCell>
        <mxCell id="2L_FqhzigyQAS_WPldLk-24" value="&lt;font style=&quot;font-size: 18px;&quot;&gt;Priority:&lt;/font&gt;" style="text;html=1;align=center;verticalAlign=middle;resizable=0;points=[];autosize=1;strokeColor=none;fillColor=none;" vertex="1" parent="1">
          <mxGeometry x="-210" y="335" width="80" height="40" as="geometry" />
        </mxCell>
      </root>
    </mxGraphModel>
  </diagram>
</mxfile>
